<svg width="37" height="38" viewBox="0 0 37 38" fill="none" xmlns="http://www.w3.org/2000/svg">
<g id="icon_loupe 1">
<g id="loupe_logo">
<path id="Vector" d="M19.8824 4.877C24.2736 6.03529 27.6077 9.30695 28.7868 13.615C29.356 15.7283 29.2747 18.9797 28.5835 20.9914C28.0143 22.6578 26.9978 24.4663 26.022 25.5027L25.4527 26.1123L26.1033 26.8845L26.7538 27.6567L27.2824 27.2299L27.8313 26.8235L30.8401 29.892C32.4868 31.5786 33.9302 33.1027 34.0318 33.2652C34.6011 34.261 33.9099 36.0695 32.7307 36.6791C31.2264 37.4513 30.3522 36.9636 26.7945 33.2856C24.2939 30.7048 24.2329 30.6032 24.5176 30.1561C24.8022 29.7294 24.7818 29.6481 24.0703 28.8556C23.1961 27.9005 23.1961 27.9005 21.1428 28.7743C19.4148 29.5059 16.6093 29.6684 14.6373 29.1807C10.3884 28.1241 7.01371 25.015 5.54998 20.8289C5.04173 19.3658 4.98075 18.939 5.00108 16.6631C5.00108 14.4481 5.0824 13.9401 5.52965 12.7615C6.30218 10.7091 7.25767 9.24599 8.78239 7.82353C11.7912 4.97861 15.9994 3.86096 19.8824 4.877ZM13.8648 7.55936C13.1736 7.78289 12.1368 8.31123 11.5472 8.73797C6.48514 12.5583 5.9769 19.6503 10.4698 24.0599C13.1126 26.6813 16.2434 27.5754 19.5368 26.661C21.895 26.0107 23.6231 24.7711 24.9242 22.8C27.0588 19.6096 27.3434 16.0535 25.7373 12.6802C23.5621 8.10802 18.7033 6.01497 13.8648 7.55936Z" fill="white"/>
<path id="Vector_2" d="M16.4671 8.02675C16.4671 8.06739 16.1012 8.31124 15.6539 8.53477C15.2067 8.7583 14.7188 9.20536 14.5561 9.51017C14.2105 10.2011 14.3528 12.3957 14.7391 12.3957C15.227 12.3957 16.2028 11.0546 16.3451 10.1604C16.5484 8.88022 17.4226 8.12835 18.744 8.12835C19.3539 8.12835 19.6995 8.20964 19.6182 8.33156C19.5572 8.43317 19.3539 8.53477 19.171 8.53477C18.1951 8.53477 17.2803 9.69306 17.2803 10.9326C17.2803 11.4203 17.2803 11.4203 18.0732 10.7091C19.0693 9.81498 20.1671 9.48985 21.2039 9.77434C22.0984 10.0182 22.2001 10.3636 21.3666 10.3636C21.0413 10.3636 20.6347 10.4246 20.4517 10.4856C19.8215 10.7294 20.1265 10.9733 21.0413 10.9733C22.0375 10.9733 23.2369 11.3797 23.8468 11.9487C24.2331 12.2738 24.2127 12.2941 23.3589 12.3957L22.4644 12.4973L23.3995 13.046C24.3347 13.5947 25.4122 14.6717 25.4122 15.0578C25.4122 15.1797 25.2495 15.1797 25.0259 15.0374C24.8023 14.9358 24.477 14.8342 24.294 14.8342C24.0501 14.8342 24.1111 14.9968 24.5583 15.5861C25.1479 16.338 25.6155 17.4353 25.6155 18.0449C25.6155 18.2888 25.5545 18.2888 25.1276 18.0246L24.66 17.6995L24.7616 19.1016C24.8023 19.8738 24.782 20.6663 24.721 20.8695C24.5787 21.1947 24.538 21.1743 24.294 20.7273C23.9891 20.1786 24.0094 20.1583 23.6028 21.662C23.3792 22.5155 22.688 23.5722 22.3627 23.5722C22.2611 23.5722 22.2204 23.2674 22.3017 22.9016L22.4237 22.2513L21.8342 22.7797C21.5089 23.0845 20.7567 23.6128 20.1875 23.9786C19.5979 24.3241 18.927 24.8931 18.6831 25.2182C18.2968 25.7669 18.1748 25.8075 16.8737 25.8075C15.5726 25.8075 13.9056 25.3808 13.0314 24.8118C12.1979 24.2834 14.1292 22.3326 16.9144 20.9305C19.4759 19.6503 20.1671 19.1219 20.6144 18.2278C21.2649 16.8257 20.7973 15.2813 19.4962 14.5904C18.7034 14.1636 17.8699 14.0824 18.2561 14.4685C18.3984 14.6107 18.5001 14.9358 18.5001 15.1797C18.5001 16.0332 17.8495 16.7038 16.3451 17.3947C15.4303 17.8011 14.6781 18.3091 14.2919 18.7765C13.7023 19.508 13.682 19.508 13.0314 19.2439L12.3605 18.9594L13.6006 17.8824C14.2919 17.2931 14.8408 16.7241 14.8408 16.6428C14.8408 16.5412 14.5968 16.4599 14.2919 16.4599C13.9056 16.4599 13.499 16.7241 12.8688 17.3947C12.0962 18.2278 11.9539 18.3091 11.6693 18.0652C11.466 17.9027 11.1611 17.8011 10.9781 17.8417C10.6528 17.9027 9.96163 17.1102 9.96163 16.7038C9.96163 16.6021 10.2259 16.3989 10.5715 16.2567C11.466 15.8909 12.1979 15.1187 12.1979 14.5497C12.1979 14.2856 12.4419 13.7572 12.7468 13.3915C13.2347 12.8225 13.316 12.5177 13.4177 10.9733C13.5397 9.04279 13.7226 8.63637 14.7798 8.18932C15.41 7.92514 16.4671 7.82354 16.4671 8.02675ZM13.621 14.4075C13.316 14.9765 13.3567 15.0781 13.8649 14.9968C14.1699 14.9562 14.3528 14.7733 14.3935 14.4685C14.4748 13.8995 13.9259 13.8588 13.621 14.4075Z" fill="white"/>
</g>
</g>
</svg>
