<?xml version="1.0" encoding="UTF-8" standalone="no" ?>
<!DOCTYPE svg PUBLIC "-//W3C//DTD SVG 1.1//EN" "http://www.w3.org/Graphics/SVG/1.1/DTD/svg11.dtd">
<svg xmlns="http://www.w3.org/2000/svg" xmlns:xlink="http://www.w3.org/1999/xlink" version="1.1" width="1080" height="1080" viewBox="0 0 1080 1080" xml:space="preserve">
<desc>Created with Fabric.js 5.2.4</desc>
<defs>
</defs>
<g transform="matrix(1 0 0 1 540 540)" id="63559225-9723-457c-a58c-febc812a8046"  >
</g>
<g transform="matrix(1 0 0 1 540 540)" id="b7e13811-9ed0-48a5-bb01-751c30012221"  >
<rect style="stroke: none; stroke-width: 1; stroke-dasharray: none; stroke-linecap: butt; stroke-dashoffset: 0; stroke-linejoin: miter; stroke-miterlimit: 4; fill: rgb(255,255,255); fill-rule: nonzero; opacity: 1; visibility: hidden;" vector-effect="non-scaling-stroke"  x="-540" y="-540" rx="0" ry="0" width="1080" height="1080" />
</g>
<g transform="matrix(1.63 0 0 1.63 539.97 539.97)" id="fcd1c2bf-56c6-4b75-aea7-2fdceba03699"  >
<rect style="stroke: rgb(0,0,0); stroke-width: 0; stroke-dasharray: none; stroke-linecap: butt; stroke-dashoffset: 0; stroke-linejoin: miter; stroke-miterlimit: 4; fill: rgb(0,0,0); fill-rule: nonzero; opacity: 1;" vector-effect="non-scaling-stroke"  x="-33.085" y="-33.085" rx="0" ry="0" width="66.17" height="66.17" />
</g>
<g transform="matrix(3.11 0 0 3.11 540.07 540.07)"  >
<g style="" vector-effect="non-scaling-stroke"   >
		<g transform="matrix(1 0 0 1 0 0)"  >
<path style="stroke: none; stroke-width: 1; stroke-dasharray: none; stroke-linecap: butt; stroke-dashoffset: 0; stroke-linejoin: miter; stroke-miterlimit: 4; fill: rgb(255,255,255); fill-rule: nonzero; opacity: 1;" vector-effect="non-scaling-stroke"  transform=" translate(-19.62, -20.75)" d="M 19.8824 4.877 C 24.2736 6.03529 27.6077 9.30695 28.7868 13.615 C 29.356 15.7283 29.2747 18.9797 28.5835 20.9914 C 28.0143 22.6578 26.9978 24.4663 26.022 25.5027 L 25.4527 26.1123 L 26.1033 26.8845 L 26.7538 27.6567 L 27.2824 27.2299 L 27.8313 26.8235 L 30.8401 29.892 C 32.4868 31.5786 33.9302 33.1027 34.0318 33.2652 C 34.6011 34.261 33.9099 36.0695 32.7307 36.6791 C 31.2264 37.4513 30.3522 36.9636 26.7945 33.2856 C 24.2939 30.7048 24.2329 30.6032 24.5176 30.1561 C 24.8022 29.7294 24.7818 29.6481 24.0703 28.8556 C 23.1961 27.9005 23.1961 27.9005 21.1428 28.7743 C 19.4148 29.5059 16.6093 29.6684 14.6373 29.1807 C 10.3884 28.1241 7.01371 25.015 5.54998 20.8289 C 5.04173 19.3658 4.98075 18.939 5.00108 16.6631 C 5.00108 14.4481 5.0824 13.9401 5.52965 12.7615 C 6.30218 10.7091 7.25767 9.24599 8.78239 7.82353 C 11.7912 4.97861 15.9994 3.86096 19.8824 4.877 Z M 13.8648 7.55936 C 13.1736 7.78289 12.1368 8.31123 11.5472 8.73797 C 6.48514 12.5583 5.9769 19.6503 10.4698 24.0599 C 13.1126 26.6813 16.2434 27.5754 19.5368 26.661 C 21.895 26.0107 23.6231 24.7711 24.9242 22.8 C 27.0588 19.6096 27.3434 16.0535 25.7373 12.6802 C 23.5621 8.10802 18.7033 6.01497 13.8648 7.55936 Z" stroke-linecap="round" />
</g>
		<g transform="matrix(1 0 0 1 -1.82 -3.89)"  >
<path style="stroke: none; stroke-width: 1; stroke-dasharray: none; stroke-linecap: butt; stroke-dashoffset: 0; stroke-linejoin: miter; stroke-miterlimit: 4; fill: rgb(255,255,255); fill-rule: nonzero; opacity: 1;" vector-effect="non-scaling-stroke"  transform=" translate(-17.79, -16.86)" d="M 16.4671 8.02675 C 16.4671 8.06739 16.1012 8.31124 15.6539 8.53477 C 15.2067 8.7583 14.7188 9.20536 14.5561 9.51017 C 14.2105 10.2011 14.3528 12.3957 14.7391 12.3957 C 15.227 12.3957 16.2028 11.0546 16.3451 10.1604 C 16.5484 8.88022 17.4226 8.12835 18.744 8.12835 C 19.3539 8.12835 19.6995 8.20964 19.6182 8.33156 C 19.5572 8.43317 19.3539 8.53477 19.171 8.53477 C 18.1951 8.53477 17.2803 9.69306 17.2803 10.9326 C 17.2803 11.4203 17.2803 11.4203 18.0732 10.7091 C 19.0693 9.81498 20.1671 9.48985 21.2039 9.77434 C 22.0984 10.0182 22.2001 10.3636 21.3666 10.3636 C 21.0413 10.3636 20.6347 10.4246 20.4517 10.4856 C 19.8215 10.7294 20.1265 10.9733 21.0413 10.9733 C 22.0375 10.9733 23.2369 11.3797 23.8468 11.9487 C 24.2331 12.2738 24.2127 12.2941 23.3589 12.3957 L 22.4644 12.4973 L 23.3995 13.046 C 24.3347 13.5947 25.4122 14.6717 25.4122 15.0578 C 25.4122 15.1797 25.2495 15.1797 25.0259 15.0374 C 24.8023 14.9358 24.477 14.8342 24.294 14.8342 C 24.0501 14.8342 24.1111 14.9968 24.5583 15.5861 C 25.1479 16.338 25.6155 17.4353 25.6155 18.0449 C 25.6155 18.2888 25.5545 18.2888 25.1276 18.0246 L 24.66 17.6995 L 24.7616 19.1016 C 24.8023 19.8738 24.782 20.6663 24.721 20.8695 C 24.5787 21.1947 24.538 21.1743 24.294 20.7273 C 23.9891 20.1786 24.0094 20.1583 23.6028 21.662 C 23.3792 22.5155 22.688 23.5722 22.3627 23.5722 C 22.2611 23.5722 22.2204 23.2674 22.3017 22.9016 L 22.4237 22.2513 L 21.8342 22.7797 C 21.5089 23.0845 20.7567 23.6128 20.1875 23.9786 C 19.5979 24.3241 18.927 24.8931 18.6831 25.2182 C 18.2968 25.7669 18.1748 25.8075 16.8737 25.8075 C 15.5726 25.8075 13.9056 25.3808 13.0314 24.8118 C 12.1979 24.2834 14.1292 22.3326 16.9144 20.9305 C 19.4759 19.6503 20.1671 19.1219 20.6144 18.2278 C 21.2649 16.8257 20.7973 15.2813 19.4962 14.5904 C 18.7034 14.1636 17.8699 14.0824 18.2561 14.4685 C 18.3984 14.6107 18.5001 14.9358 18.5001 15.1797 C 18.5001 16.0332 17.8495 16.7038 16.3451 17.3947 C 15.4303 17.8011 14.6781 18.3091 14.2919 18.7765 C 13.7023 19.508 13.682 19.508 13.0314 19.2439 L 12.3605 18.9594 L 13.6006 17.8824 C 14.2919 17.2931 14.8408 16.7241 14.8408 16.6428 C 14.8408 16.5412 14.5968 16.4599 14.2919 16.4599 C 13.9056 16.4599 13.499 16.7241 12.8688 17.3947 C 12.0962 18.2278 11.9539 18.3091 11.6693 18.0652 C 11.466 17.9027 11.1611 17.8011 10.9781 17.8417 C 10.6528 17.9027 9.96163 17.1102 9.96163 16.7038 C 9.96163 16.6021 10.2259 16.3989 10.5715 16.2567 C 11.466 15.8909 12.1979 15.1187 12.1979 14.5497 C 12.1979 14.2856 12.4419 13.7572 12.7468 13.3915 C 13.2347 12.8225 13.316 12.5177 13.4177 10.9733 C 13.5397 9.04279 13.7226 8.63637 14.7798 8.18932 C 15.41 7.92514 16.4671 7.82354 16.4671 8.02675 Z M 13.621 14.4075 C 13.316 14.9765 13.3567 15.0781 13.8649 14.9968 C 14.1699 14.9562 14.3528 14.7733 14.3935 14.4685 C 14.4748 13.8995 13.9259 13.8588 13.621 14.4075 Z" stroke-linecap="round" />
</g>
</g>
</g>
</svg>