<?xml version="1.0" encoding="UTF-8" standalone="no"?>
<!DOCTYPE svg PUBLIC "-//W3C//DTD SVG 1.1//EN" "http://www.w3.org/Graphics/SVG/1.1/DTD/svg11.dtd">
<svg xmlns="http://www.w3.org/2000/svg" version="1.1" viewBox="0.00 0.00 110.00 117.00">
<path fill="#ffffff" d="
  M 65.77 29.96
  Q 65.83 29.93 65.83 29.92
  L 65.73 29.68
  Q 65.64 29.44 65.41 29.52
  Q 55.48 32.65 49.31 36.08
  Q 47.07 37.33 46.56 40.49
  Q 46.48 40.98 45.99 41.05
  L 45.07 41.19
  Q 44.68 41.25 44.68 41.64
  Q 44.66 42.89 45.10 43.97
  Q 46.18 46.66 43.97 44.61
  C 42.40 43.15 40.12 42.77 38.90 40.32
  Q 38.62 39.76 39.24 39.83
  L 39.99 39.91
  A 0.42 0.41 -9.6 0 0 40.41 39.32
  L 39.64 37.69
  Q 39.31 36.99 40.06 37.15
  L 41.89 37.53
  Q 42.37 37.63 42.46 37.14
  Q 42.69 35.78 42.18 34.52
  A 0.37 0.36 4.0 0 1 42.70 34.07
  Q 44.23 34.93 44.52 33.40
  Q 44.63 32.87 45.10 32.59
  Q 47.29 31.29 48.66 29.05
  Q 48.87 28.69 48.46 28.62
  Q 43.84 27.81 39.86 25.27
  A 0.50 0.49 -58.7 0 0 39.17 25.44
  L 38.36 26.82
  Q 37.99 27.45 37.58 26.85
  Q 36.52 25.32 34.69 25.98
  A 0.69 0.68 -16.8 0 0 34.26 26.78
  L 34.53 27.92
  A 0.30 0.30 0.0 0 1 34.08 28.25
  L 30.39 26.04
  A 0.87 0.87 0.0 0 0 29.11 27.05
  L 29.24 27.46
  A 0.40 0.40 0.0 0 1 28.79 27.97
  Q 27.35 27.71 26.42 26.56
  A 0.39 0.39 0.0 0 0 25.73 26.77
  Q 25.62 28.23 26.19 29.58
  Q 26.83 31.11 25.39 30.28
  C 22.87 28.83 20.44 24.53 18.84 22.28
  Q 18.68 22.05 18.85 21.83
  L 22.09 17.69
  Q 22.14 17.62 22.20 17.68
  L 26.20 21.76
  Q 26.66 22.22 27.29 22.05
  L 35.46 19.82
  A 0.48 0.48 0.0 0 0 35.76 19.13
  L 34.99 17.63
  Q 34.81 17.28 35.12 17.05
  L 42.52 11.55
  Q 43.04 11.17 43.32 11.75
  L 43.43 11.99
  Q 43.63 12.40 43.97 12.08
  Q 47.76 8.43 51.37 4.62
  Q 52.69 3.23 52.74 3.14
  Q 54.63 -0.44 53.79 3.49
  Q 53.13 6.57 52.01 9.47
  A 0.33 0.33 0.0 0 0 52.43 9.89
  L 58.10 7.80
  Q 58.26 7.74 58.34 7.94
  L 58.34 7.95
  Q 58.39 8.09 58.24 8.14
  Q 52.98 10.10 49.22 14.22
  A 0.47 0.47 0.0 0 0 49.40 14.98
  Q 49.70 15.09 50.22 14.93
  C 58.66 12.28 67.49 9.20 71.77 2.68
  Q 72.96 0.86 72.25 2.91
  C 70.37 8.32 66.30 11.92 61.88 15.63
  Q 61.59 15.87 61.96 15.81
  L 73.86 13.84
  A 0.18 0.18 0.0 0 1 73.98 14.18
  L 65.26 18.75
  Q 63.46 19.70 65.49 19.60
  L 87.78 18.47
  Q 89.66 18.37 87.95 19.15
  L 83.64 21.14
  Q 82.62 21.60 83.69 21.95
  Q 96.88 26.22 108.56 33.67
  A 0.08 0.08 0.0 0 1 108.49 33.82
  Q 98.54 30.63 88.22 28.53
  C 81.67 27.19 75.85 25.16 69.64 23.27
  Q 69.56 23.25 69.53 23.33
  L 69.44 23.58
  Q 69.35 23.81 69.58 23.91
  C 86.69 31.53 103.10 37.94 106.04 59.24
  Q 106.34 61.40 105.50 59.39
  C 101.41 49.62 90.66 40.45 81.98 35.00
  Q 80.17 33.86 81.40 35.62
  C 86.46 42.86 86.91 51.41 85.46 60.24
  Q 85.36 60.81 85.11 60.29
  Q 83.67 57.29 81.70 54.72
  Q 80.64 53.33 80.73 55.08
  C 81.12 63.11 72.79 70.47 66.57 74.56
  Q 66.27 74.76 66.42 74.43
  L 70.17 66.49
  Q 70.58 65.61 69.74 66.10
  Q 64.02 69.40 58.13 72.93
  C 50.84 77.28 50.12 84.86 58.64 88.34
  C 67.00 91.76 78.69 91.73 86.51 86.34
  C 89.51 84.29 90.22 81.15 86.52 79.22
  Q 80.12 75.88 72.87 76.23
  Q 72.70 76.24 72.68 76.07
  L 72.68 76.07
  Q 72.66 75.90 72.82 75.87
  Q 77.98 74.86 85.23 75.28
  C 90.47 75.59 99.71 79.58 96.91 86.34
  C 93.46 94.67 80.93 98.16 72.75 98.78
  C 60.12 99.72 45.68 97.74 37.38 87.15
  Q 29.87 77.56 36.29 67.28
  Q 36.58 66.81 36.04 66.88
  C 26.47 68.10 13.50 71.58 14.29 84.00
  Q 14.66 89.98 20.17 95.80
  C 36.46 113.02 64.75 114.26 85.54 105.86
  Q 86.80 105.35 85.61 106.01
  Q 66.70 116.54 44.12 114.14
  C 30.27 112.66 15.55 106.53 7.07 95.18
  C 3.70 90.66 1.66 84.57 2.62 78.97
  C 5.79 60.55 31.85 58.34 46.00 58.52
  Q 48.71 58.56 50.84 57.65
  C 56.03 55.42 64.64 51.67 64.99 45.07
  C 65.20 41.15 61.08 36.27 58.15 34.05
  A 0.39 0.39 0.0 0 1 58.23 33.39
  L 65.77 29.96
  Z
  M 38.29 20.25
  L 38.81 21.40
  A 0.41 0.41 0.0 0 0 39.35 21.61
  L 41.39 20.70
  A 5.70 0.87 -24.0 0 0 46.24 17.59
  L 46.10 17.28
  A 5.70 0.87 -24.0 0 0 40.54 18.80
  L 38.50 19.71
  A 0.41 0.41 0.0 0 0 38.29 20.25
  Z"
/>
<path fill="#ffffff" d="
  M 36.20 32.68
  C 39.06 31.78 37.86 28.69 42.01 28.57
  Q 42.61 28.55 42.11 28.88
  C 40.15 30.14 39.82 29.75 38.58 32.02
  C 37.12 34.71 31.95 33.61 29.39 36.96
  Q 29.09 37.35 28.96 37.83
  Q 28.88 38.16 28.67 38.39
  Q 28.35 38.74 28.40 38.26
  C 28.87 33.53 32.88 33.73 36.20 32.68
  Z"
/>
<path fill="#ffffff" d="
  M 20.60 52.35
  A 1.37 1.36 -45.5 0 0 20.58 49.80
  Q 17.07 48.50 13.34 49.02
  Q 12.75 49.10 12.97 48.54
  Q 13.74 46.68 12.83 46.58
  Q 10.05 46.28 7.63 47.56
  Q 7.27 47.75 7.13 47.37
  Q 7.06 47.19 7.06 46.96
  A 0.59 0.58 -1.4 0 0 6.45 46.39
  Q 4.26 46.49 2.16 45.89
  Q 1.23 45.62 2.20 45.60
  L 6.76 45.50
  Q 7.29 45.49 7.44 44.99
  L 7.62 44.42
  Q 7.78 43.91 8.32 43.86
  L 15.11 43.34
  Q 15.66 43.30 15.67 43.85
  L 15.68 44.76
  A 1.03 1.02 14.5 0 0 16.20 45.63
  Q 18.04 46.68 20.21 46.44
  A 0.73 0.72 55.8 0 0 20.47 45.08
  Q 18.37 43.95 17.00 41.98
  Q 16.65 41.48 16.04 41.45
  Q 14.81 41.38 13.59 41.61
  Q 12.36 41.83 11.86 41.65
  Q 10.92 41.28 10.88 40.11
  A 0.97 0.96 9.6 0 0 10.26 39.24
  L 7.44 38.19
  Q 7.24 38.12 7.35 37.94
  L 7.51 37.65
  Q 7.56 37.57 7.65 37.59
  Q 9.97 38.09 12.32 38.13
  Q 12.83 38.13 13.13 38.37
  Q 13.45 38.61 13.67 38.93
  Q 13.95 39.34 14.44 39.32
  L 19.93 39.05
  Q 20.30 39.03 20.41 39.39
  Q 21.76 43.72 25.94 45.45
  A 0.27 0.26 45.2 0 1 25.94 45.94
  L 25.21 46.22
  A 0.55 0.54 -15.1 0 0 24.87 46.80
  Q 25.00 47.58 25.70 48.06
  A 0.54 0.54 0.0 0 0 26.44 47.93
  Q 26.70 47.58 26.78 47.12
  Q 26.86 46.63 27.35 46.51
  Q 28.23 46.30 28.83 45.66
  Q 29.22 45.25 29.72 45.51
  L 32.48 46.93
  Q 33.01 47.20 33.16 47.78
  L 33.47 48.98
  Q 33.64 49.64 33.07 49.26
  C 31.14 47.95 28.42 48.53 29.40 51.43
  Q 29.58 51.97 29.01 51.98
  L 27.54 52.00
  A 1.03 1.01 20.5 0 0 26.82 52.32
  Q 24.86 54.42 24.39 57.18
  Q 24.30 57.71 23.77 57.71
  L 20.72 57.71
  A 0.31 0.31 0.0 0 1 20.48 57.20
  L 20.68 56.96
  Q 20.97 56.63 20.93 56.18
  Q 20.85 55.48 19.99 55.49
  Q 17.48 55.54 15.01 54.98
  Q 13.16 54.57 12.63 56.08
  Q 12.49 56.48 12.07 56.45
  L 7.28 56.12
  A 0.23 0.22 38.6 0 1 7.23 55.68
  L 9.52 55.01
  A 0.51 0.51 0.0 0 0 9.86 54.35
  L 9.60 53.64
  Q 9.39 53.05 10.01 53.02
  C 12.39 52.89 15.58 51.48 17.57 53.12
  Q 17.92 53.40 18.35 53.24
  L 20.60 52.35
  Z"
/>
</svg>
